<svg xmlns="http://www.w3.org/2000/svg" width="155" height="42" viewBox="0 0 155 42">
    <g fill="none" fill-rule="nonzero">
        <path fill="#F63" d="M3.1 4.87v32.26c0 1.007.835 1.827 1.86 1.827h145.08c1.027 0 1.86-.818 1.86-1.826V4.869c0-1.006-.835-1.826-1.86-1.826H4.96c-1.027 0-1.86.818-1.86 1.826zm-3.1 0C0 2.18 2.22 0 4.96 0h145.08c2.74 0 4.96 2.184 4.96 4.87v32.26c0 2.69-2.22 4.87-4.96 4.87H4.96C2.22 42 0 39.816 0 37.13V4.87z"/>
        <path fill="#000" d="M27.639 14.322l2.48 6.812.49 2.21h.11l.381-2.236 1.745-6.786h3.243l-4.197 13.439h-2.617L26.52 20.31l-.354-1.677h-.137l-.327 1.703-2.616 7.425h-2.699L16 14.322h3.843l1.99 6.68.327 2.368h.136l.464-2.395 2.262-6.653h2.617zm8.885 6.653c0-2.253.563-3.987 1.69-5.203 1.127-1.215 2.707-1.822 4.743-1.822 1.09 0 2.035.168 2.834.505a5.29 5.29 0 0 1 1.99 1.424c.527.612.922 1.353 1.186 2.222.263.87.395 1.827.395 2.874 0 2.253-.559 3.987-1.676 5.202C46.568 27.392 44.992 28 42.956 28c-1.09 0-2.034-.169-2.834-.506a5.413 5.413 0 0 1-2.003-1.423c-.536-.612-.936-1.353-1.2-2.222-.263-.87-.395-1.828-.395-2.874zm3.652 0c0 .585.055 1.126.164 1.623.11.497.273.931.49 1.304.219.373.505.66.86.865.354.204.776.306 1.267.306.926 0 1.617-.328 2.071-.985.454-.656.682-1.694.682-3.113 0-1.224-.21-2.213-.627-2.967-.418-.754-1.127-1.131-2.126-1.131-.873 0-1.554.32-2.045.958-.49.638-.736 1.685-.736 3.14zm21.26-6.653l2.48 6.812.492 2.21h.109l.381-2.236 1.745-6.786h3.243L65.69 27.761h-2.617l-2.753-7.451-.354-1.677h-.137l-.327 1.703-2.616 7.425h-2.699l-4.388-13.439h3.843l1.99 6.68.327 2.368h.136l.464-2.395 2.262-6.653h2.617zm20.252 0l2.48 6.812.491 2.21h.11l.38-2.236 1.745-6.786h3.244L85.94 27.761h-2.616L80.57 20.31l-.355-1.677h-.136l-.327 1.703-2.617 7.425h-2.698L70.05 14.322h3.843l1.99 6.68.327 2.368h.136l.463-2.395 2.262-6.653h2.617zm8.886 6.653c0-2.253.563-3.987 1.69-5.203 1.126-1.215 2.707-1.822 4.742-1.822 1.09 0 2.035.168 2.835.505a5.29 5.29 0 0 1 1.99 1.424c.527.612.922 1.353 1.185 2.222.264.87.396 1.827.396 2.874 0 2.253-.56 3.987-1.677 5.202C100.618 27.392 99.041 28 97.006 28c-1.09 0-2.035-.169-2.834-.506a5.413 5.413 0 0 1-2.004-1.423c-.536-.612-.936-1.353-1.2-2.222-.263-.87-.394-1.828-.394-2.874zm3.652 0c0 .585.055 1.126.164 1.623.109.497.272.931.49 1.304.218.373.504.66.859.865.354.204.777.306 1.267.306.927 0 1.617-.328 2.072-.985.454-.656.681-1.694.681-3.113 0-1.224-.209-2.213-.627-2.967-.418-.754-1.126-1.131-2.126-1.131-.872 0-1.553.32-2.044.958-.49.638-.736 1.685-.736 3.14zm19.161-3.406c-.563-.196-1.072-.293-1.526-.293-.636 0-1.167.164-1.594.492-.427.328-.714.75-.859 1.264v8.595h-3.543V14.322h2.753l.408 1.756h.11c.308-.656.726-1.162 1.253-1.516.527-.355 1.145-.533 1.854-.533.472 0 1.008.098 1.608.293l-.464 3.247zm6.542 4.55h-.954v5.508h-3.543V9h3.543v10.99l.818-.372 3.107-5.296h3.898l-3.271 5.056-1.39 1.011 1.499 1.038 3.68 6.2h-4.062l-3.325-5.508zm14.064.985a5.63 5.63 0 0 0-1.144-.586c-.455-.177-.954-.359-1.5-.545a5.68 5.68 0 0 1-1.499-.772 4.263 4.263 0 0 1-1.144-1.25c-.31-.506-.464-1.158-.464-1.957 0-1.312.4-2.315 1.2-3.007.799-.691 1.953-1.037 3.461-1.037 1.036 0 1.972.106 2.807.319.836.213 1.49.452 1.963.718l-.79 2.502c-.418-.16-.945-.328-1.581-.506a7.17 7.17 0 0 0-1.936-.266c-1.054 0-1.58.4-1.58 1.198 0 .319.154.576.463.771.309.195.69.377 1.145.546.454.168.954.35 1.499.545a6.564 6.564 0 0 1 1.499.759c.454.31.836.714 1.145 1.21.309.497.463 1.136.463 1.916 0 1.349-.44 2.409-1.322 3.18-.881.772-2.203 1.158-3.966 1.158-.963 0-1.867-.12-2.712-.36-.845-.239-1.53-.518-2.058-.837l.982-2.582c.418.23.972.457 1.662.679.69.222 1.4.332 2.126.332.527 0 .95-.097 1.268-.292.318-.195.477-.524.477-.985 0-.355-.155-.638-.464-.851z"/>
    </g>
</svg>
